<?xml version="1.0" encoding="UTF-8" standalone="no"?>
<svg
   width="170"
   height="20"
   version="1.1"
   id="svg38"
   sodipodi:docname="open-arrayfire-in-colab.svg"
   inkscape:version="1.1.2 (0a00cf5339, 2022-02-04)"
   xmlns:inkscape="http://www.inkscape.org/namespaces/inkscape"
   xmlns:sodipodi="http://sodipodi.sourceforge.net/DTD/sodipodi-0.dtd"
   xmlns="http://www.w3.org/2000/svg"
   xmlns:svg="http://www.w3.org/2000/svg">
  <defs
     id="defs42">
    <inkscape:path-effect
       effect="fillet_chamfer"
       id="path-effect48061"
       is_visible="true"
       lpeversion="1"
       satellites_param="F,0,0,1,0,0,0,1 @ F,0,0,1,0,0,0,1 @ F,0,0,1,0,0,0,1 @ F,0,0,1,0,0,0,1"
       unit="px"
       method="auto"
       mode="F"
       radius="3"
       chamfer_steps="1"
       flexible="false"
       use_knot_distance="true"
       apply_no_radius="true"
       apply_with_radius="true"
       only_selected="false"
       hide_knots="false" />
  </defs>
  <sodipodi:namedview
     id="namedview40"
     pagecolor="#ffffff"
     bordercolor="#666666"
     borderopacity="1.0"
     inkscape:pageshadow="2"
     inkscape:pageopacity="0.0"
     inkscape:pagecheckerboard="0"
     showgrid="false"
     showguides="true"
     inkscape:guide-bbox="true"
     inkscape:snap-global="true"
     inkscape:zoom="4.0401785"
     inkscape:cx="93.312709"
     inkscape:cy="21.904973"
     inkscape:window-width="1920"
     inkscape:window-height="1060"
     inkscape:window-x="0"
     inkscape:window-y="20"
     inkscape:window-maximized="1"
     inkscape:current-layer="svg38"
     width="118px">
    <sodipodi:guide
       position="-48.480179,5.6484667"
       orientation="0,-1"
       id="guide37782" />
    <sodipodi:guide
       position="52.330591,14.399402"
       orientation="0,-1"
       id="guide37944" />
  </sodipodi:namedview>
  <linearGradient
     id="b"
     x2="0"
     y2="48.373547"
     gradientTransform="scale(3.5199326,0.41344912)"
     x1="0"
     y1="0"
     gradientUnits="userSpaceOnUse">
    <stop
       offset="0"
       stop-color="#bbb"
       stop-opacity=".1"
       id="stop2" />
    <stop
       offset="1"
       stop-opacity=".1"
       id="stop4" />
  </linearGradient>
  <clipPath
     id="a">
    <rect
       width="117"
       height="20"
       rx="3"
       fill="#ffffff"
       id="rect7"
       x="0"
       y="0" />
  </clipPath>
  <path
     fill="#555555"
     d="M 0,0 H 30.894318 V 20 H 0 Z"
     id="path10"
     style="stroke-width:1.0148" />
  <path
     fill="#007ec6"
     d="M 30.894318,0 H 170.27161 V 20 H 30.894318 Z"
     id="path12"
     style="stroke-width:1.26572"
     inkscape:path-effect="#path-effect48061"
     inkscape:original-d="M 30.894318,0 H 170.27161 V 20 H 30.894318 Z" />
  <path
     fill="url(#b)"
     d="M 0,0 H 170.27161 V 20 H 0 Z"
     id="path14"
     style="fill:url(#b);stroke-width:1.20637" />
  <svg
     x="4"
     y="0px"
     width="22"
     height="20"
     viewBox="-2 0 28 24"
     version="1.1"
     id="svg28"
     style="font-size:110px;font-family:'DejaVu Sans', Verdana, Geneva, sans-serif;text-anchor:middle;fill:#ffffff">
    <path
       style="fill:#e8710a"
       d="m 1.977,16.77 c -2.667,-2.277 -2.605,-7.079 0,-9.357 0.942,0.644 1.545,1.662 2.513,2.278 -1.152,1.6 -1.146,3.201 -0.004,4.803 -0.964,0.617 -1.568,1.632 -2.509,2.276 z"
       id="path18" />
    <path
       style="fill:#f9ab00"
       d="M 12.257,17.114 C 10.49,15.481 9.772,13.456 10.139,11.094 10.59,8.184 12.278,6.201 15.085,5.416 17.65,4.698 20.049,5.199 21.963,7.235 21.079,7.978 20.256,8.782 19.529,9.681 18.488,8.827 17.319,8.435 16,8.856 c -2.404,0.767 -3.046,3.241 -1.494,5.644 -0.241,0.275 -0.493,0.541 -0.721,0.826 -0.49,0.613 -1.274,0.974 -1.528,1.788 z"
       id="path20" />
    <path
       style="fill:#e8710a"
       d="m 19.529,9.682 c 0.727,-0.899 1.55,-1.703 2.434,-2.446 2.703,2.783 2.701,7.031 -0.005,9.764 -2.648,2.674 -6.936,2.725 -9.701,0.115 0.254,-0.814 1.038,-1.175 1.528,-1.788 0.228,-0.285 0.48,-0.552 0.721,-0.826 1.053,0.916 2.254,1.268 3.6,0.83 2.396,-0.78 3.045,-3.404 1.423,-5.649 z"
       id="path22" />
    <path
       style="fill:#f9ab00"
       d="M 4.49,9.691 C 3.522,9.075 2.919,8.057 1.977,7.413 4.186,5.015 7.698,4.471 10.453,6.058 11.008,6.378 11.172,6.664 10.738,7.186 10.581,7.374 10.48,7.608 10.347,7.817 10.048,8.287 9.838,8.884 9.418,9.188 8.933,9.539 8.523,8.847 8.021,8.746 6.673,8.475 5.509,8.787 4.49,9.691 Z"
       id="path24" />
    <path
       style="fill:#f9ab00"
       d="m 1.977,16.77 c 0.941,-0.644 1.545,-1.659 2.509,-2.277 1.373,1.152 2.85,1.433 4.45,0.499 0.332,-0.194 0.503,-0.088 0.673,0.19 0.386,0.635 0.753,1.285 1.181,1.89 0.34,0.48 0.222,0.715 -0.253,1.006 -2.697,1.652 -6.332,1.11 -8.56,-1.308 z"
       id="path26" />
  </svg>
  <text
     x="725"
     y="150"
     fill="#010101"
     fill-opacity="0.3"
     transform="matrix(0.1,0,0,0.1,3.142,0.03545453)"
     textLength="770"
     id="text32"
     lengthAdjust="spacing"
     style="font-size:110px;font-family:'DejaVu Sans', Verdana, Geneva, sans-serif;text-anchor:middle">Open in Colab</text>
  <text
     x="725"
     y="140"
     transform="matrix(0.1,0,0,0.1,3.18177,0.22806697)"
     textLength="770"
     id="text34"
     lengthAdjust="spacing"
     style="font-size:110px;font-family:'DejaVu Sans', Verdana, Geneva, sans-serif;text-anchor:middle;fill:#ffffff">Open in Colab</text>
  <text
     xml:space="preserve"
     style="font-style:normal;font-weight:normal;font-size:11px;line-height:1.25;font-family:'DejaVu Sans', Verdana, Geneva, sans-serif;fill:#000000;fill-opacity:0.333569;stroke:none"
     x="118.66198"
     y="14.762287"
     id="text13415-2"><tspan
       sodipodi:role="line"
       id="tspan13413-6"
       x="118.66198"
       y="14.762287"
       style="font-style:normal;font-variant:normal;font-weight:normal;font-stretch:normal;font-size:11px;font-family:'DejaVu Sans', Verdana, Geneva, sans-serif;-inkscape-font-specification:'DejaVu Sans';fill:#000000;fill-opacity:0.333569">(Python)</tspan></text>
  <text
     xml:space="preserve"
     style="font-style:normal;font-weight:normal;font-size:11px;line-height:1.25;font-family:'DejaVu Sans', Verdana, Geneva, sans-serif;fill:#ffffff;fill-opacity:1;stroke:none"
     x="118.70545"
     y="14.006334"
     id="text13415"><tspan
       sodipodi:role="line"
       id="tspan13413"
       x="118.70545"
       y="14.006334"
       style="font-style:normal;font-variant:normal;font-weight:normal;font-stretch:normal;font-size:11px;font-family:'DejaVu Sans', Verdana, Geneva, sans-serif;-inkscape-font-specification:'DejaVu Sans';fill:#ffffff">(Python)</tspan></text>
</svg>
